<svg width="203" height="40" viewBox="0 0 203 40" fill="none" xmlns="http://www.w3.org/2000/svg">
<g clip-path="url(#clip0_25_105)">
<path d="M133.885 11.6389V39.5509H131.06V33.6157C129.868 35.5889 128.168 37.2182 126.132 38.3391C124.095 39.4599 121.794 40.0328 119.46 40C111.532 40 105.04 34.125 105.04 25.5926C105.04 17.0602 111.532 11.3009 119.46 11.3009C124.06 11.3009 128.711 13.3889 131.07 17.7407V11.6389H133.885ZM107.856 25.5926C107.856 32.6018 113.034 37.2916 119.46 37.2916C135.264 37.2916 135.264 13.9537 119.46 13.9537C113.029 13.9537 107.856 18.5833 107.856 25.5926Z" fill="black"/>
<path d="M168.756 0V39.5509H166.002V33.3889C163.648 37.6296 158.992 40 154.166 40C146.234 40 139.972 34.8611 139.972 25.5926C139.972 16.3241 146.295 11.1852 154.223 11.1852C159.105 11.1852 163.699 13.2222 165.992 17.7407V0H168.756ZM142.731 25.5926C142.731 33.3333 147.957 37.2917 154.336 37.2917C161.002 37.2917 165.94 32.4861 165.94 25.537C165.94 18.588 160.884 13.8426 154.336 13.8426C147.957 13.8426 142.731 17.7407 142.731 25.5926Z" fill="black"/>
<path d="M194.036 11.6945H202.426V11.9213L193.118 25.4259L203 39.3796V39.5509H194.611L188.462 30.2269L182.314 39.5509H173.929V39.3796L183.811 25.4259L174.504 11.9213V11.6945H182.888L188.462 21.1296L194.036 11.6945Z" fill="#4381C3"/>
<path d="M15.1968 10.7593C13.7105 10.729 12.2368 11.0322 10.8876 11.6459C9.53832 12.2596 8.34904 13.1676 7.41006 14.3009L7.14172 11.1852H0V39.1713H7.67841V25.0741C7.67841 20.4769 10.5266 17.7824 15.2109 17.7824C16.3183 17.8105 17.421 17.9344 18.5063 18.1528V11.2083C17.4294 10.9357 16.3228 10.7927 15.2109 10.7824" fill="black"/>
<path d="M74.6703 11.1852L74.402 13.963C71.8562 11.7483 68.564 10.5437 65.1653 10.5833C56.8984 10.5833 50.8301 16.6019 50.8301 25.1574C50.8301 33.3982 56.6301 39.7361 65.1653 39.7361C68.55 39.7483 71.8247 38.5543 74.3832 36.375L74.6515 39.1528H81.313V11.1852H74.6703ZM66.1963 32.6759C61.7945 32.6759 58.6262 29.5602 58.6262 25.1759C58.6262 20.7917 61.7945 17.6806 66.1963 17.6806C70.5981 17.6806 73.7288 20.7963 73.7288 25.1759C73.7288 29.5556 70.5604 32.6759 66.1963 32.6759Z" fill="black"/>
<path d="M100.276 10.7593C98.7903 10.729 97.3173 11.0323 95.9688 11.646C94.6204 12.2597 93.4319 13.1677 92.4939 14.3009L92.2256 11.1852H85.0933V39.1713H92.7717V25.0741C92.7717 20.4769 95.5963 17.7824 100.304 17.7824C101.412 17.8105 102.514 17.9344 103.6 18.1528V11.2083C102.523 10.9354 101.416 10.7924 100.304 10.7824" fill="black"/>
<path d="M36.9373 20.162L35.3649 20.7592C35.3528 20.7636 35.3419 20.7706 35.3328 20.7795C35.3237 20.7885 35.3167 20.7992 35.3122 20.8111C35.3077 20.823 35.3059 20.8357 35.3069 20.8483C35.3079 20.8609 35.3116 20.8732 35.3178 20.8842L35.4402 21.0972C35.5022 21.1987 35.5287 21.3174 35.5155 21.4352L35.4214 22.2222H35.5767L35.7745 21.8379C35.78 21.8293 35.7876 21.8222 35.7967 21.8173C35.8057 21.8124 35.8159 21.8098 35.8263 21.8098C35.8366 21.8098 35.8468 21.8124 35.8558 21.8173C35.8649 21.8222 35.8725 21.8293 35.878 21.8379L36.137 22.2731C36.1405 22.2799 36.1459 22.2856 36.1526 22.2896C36.1592 22.2936 36.1668 22.2957 36.1746 22.2957C36.1824 22.2957 36.19 22.2936 36.1967 22.2896C36.2033 22.2856 36.2087 22.2799 36.2123 22.2731L36.8902 21.3842C36.9372 21.3208 36.9988 21.2693 37.07 21.2338C37.1412 21.1984 37.22 21.1801 37.2998 21.1805H37.5587C37.688 21.1809 37.8125 21.1329 37.9071 21.0463L38.6274 20.3981C38.6342 20.3934 38.6397 20.3872 38.6436 20.3799C38.6474 20.3727 38.6494 20.3646 38.6494 20.3564C38.6494 20.3483 38.6474 20.3402 38.6436 20.333C38.6397 20.3257 38.6342 20.3195 38.6274 20.3148L38.1943 20.1574C37.7937 20.0092 37.352 20.0092 36.9514 20.1574" fill="black"/>
<path d="M33.8301 10.6019C30.899 10.6019 28.0337 11.4566 25.5965 13.058C23.1594 14.6595 21.2598 16.9356 20.1381 19.5987C19.0164 22.2617 18.7229 25.1921 19.2948 28.0192C19.8666 30.8463 21.2781 33.4431 23.3507 35.4814C25.4234 37.5196 28.0641 38.9076 30.9389 39.47C33.8137 40.0323 36.7935 39.7437 39.5016 38.6406C42.2096 37.5376 44.5242 35.6696 46.1526 33.2729C47.7811 30.8762 48.6503 28.0584 48.6503 25.1759C48.649 21.311 47.0872 17.6048 44.3082 14.8719C41.5291 12.139 37.7603 10.6031 33.8301 10.6019ZM35.3743 33.1435C35.0745 33.2594 34.7549 33.3176 34.4327 33.3148H34.3245C34.2808 33.3148 34.2389 33.2978 34.208 33.2674C34.1771 33.237 34.1597 33.1958 34.1597 33.1528C34.163 33.1169 34.1586 33.0806 34.1468 33.0465C34.135 33.0123 34.1161 32.9809 34.0913 32.9543C34.0665 32.9277 34.0363 32.9065 34.0027 32.8921C33.9691 32.8776 33.9327 32.8702 33.8961 32.8704H33.7501C33.7145 32.8698 33.6791 32.8761 33.646 32.8891C33.6129 32.9021 33.5827 32.9215 33.5573 32.946C33.5319 32.9706 33.5117 32.9999 33.4979 33.0322C33.4841 33.0645 33.4771 33.0992 33.4771 33.1343C33.4771 33.1772 33.4597 33.2185 33.4288 33.2489C33.3979 33.2792 33.356 33.2963 33.3123 33.2963H33.2087C32.8865 33.3 32.5667 33.2418 32.2672 33.125C31.4904 32.8287 30.1863 32.1343 30.8548 30.9769C30.9426 31.0649 31.0473 31.1348 31.1629 31.1825C31.2785 31.2302 31.4027 31.2548 31.528 31.2546H31.5704C31.8557 31.257 32.1321 31.1566 32.3472 30.9722C32.7482 30.6293 33.2659 30.4474 33.7972 30.463C34.3517 30.4379 34.8942 30.6273 35.3084 30.9908C35.5235 31.1751 35.7999 31.2755 36.0852 31.2732H36.1275C36.2529 31.2733 36.377 31.2488 36.4926 31.2011C36.6082 31.1534 36.713 31.0834 36.8008 30.9954C37.4787 32.1528 36.1746 32.8472 35.3884 33.1435M31.7775 28.6713V28.0093L31.8387 28.125C31.9416 28.3303 32.1003 28.5035 32.2973 28.6253C32.4943 28.747 32.7218 28.8127 32.9545 28.8148H34.6964C34.9313 28.8147 35.1616 28.7501 35.3612 28.6282C35.5609 28.5063 35.7219 28.3321 35.8262 28.125L35.8875 28.0093V28.6713C35.8875 28.8923 35.7982 29.1043 35.6392 29.2606C35.4803 29.4168 35.2648 29.5046 35.04 29.5046H32.6202C32.5092 29.5046 32.3992 29.4831 32.2967 29.4411C32.1941 29.3992 32.101 29.3377 32.0227 29.2603C31.9444 29.1828 31.8824 29.0909 31.8403 28.9899C31.7983 28.8888 31.7769 28.7805 31.7775 28.6713ZM39.7808 23.2871C39.7487 23.3764 39.6983 23.4583 39.6326 23.5276C39.567 23.5969 39.4875 23.6522 39.3992 23.69C39.3108 23.7277 39.2155 23.7472 39.1192 23.7472C39.0228 23.7472 38.9276 23.7277 38.8392 23.6898L37.6387 23.1852L37.4881 23.3148L38.1284 24.2408C38.2171 24.2407 38.3025 24.2744 38.3665 24.3348C38.4306 24.3952 38.4684 24.4776 38.472 24.5648C38.505 25.1852 38.472 26.5648 37.6952 27.4213L37.5352 27.8102C37.5297 27.8251 37.5202 27.8382 37.5078 27.8482C37.4954 27.8583 37.4804 27.8648 37.4645 27.8672C37.4486 27.8695 37.4323 27.8676 37.4174 27.8617C37.4025 27.8557 37.3895 27.846 37.3798 27.8333L37.0314 27.4074C36.7311 27.0439 36.3088 26.7977 35.8404 26.713L35.6379 26.6759C35.469 26.6497 35.3086 26.5849 35.1697 26.4869C35.0307 26.3888 34.917 26.2601 34.8376 26.1111C34.7886 26.0118 34.7051 25.933 34.6022 25.8889L34.4563 25.8287C34.3163 25.7684 34.1972 25.6693 34.1136 25.5435C34.03 25.4177 33.9855 25.2707 33.9855 25.1204V25C33.9876 24.8207 34.0311 24.6442 34.1127 24.4838C34.1942 24.3234 34.3117 24.1833 34.4563 24.0741L34.7435 23.8565C34.8584 23.77 34.9989 23.7229 35.1436 23.7222C35.3222 23.7222 35.4934 23.6525 35.6197 23.5283C35.7459 23.4042 35.8168 23.2358 35.8168 23.0602V22.6482H31.8529V23.0602C31.8529 23.235 31.9231 23.4027 32.0484 23.5267C32.1736 23.6507 32.3436 23.721 32.5214 23.7222C32.6663 23.7215 32.8073 23.7688 32.9215 23.8565L33.2134 24.0741C33.3572 24.184 33.4742 24.3243 33.5557 24.4845C33.6371 24.6447 33.6811 24.8209 33.6842 25V25.1204C33.6836 25.2705 33.6389 25.4173 33.5553 25.543C33.4718 25.6687 33.3531 25.7679 33.2134 25.8287L33.0675 25.8889C32.9659 25.9349 32.883 26.0132 32.8321 26.1111C32.7571 26.2638 32.6463 26.3967 32.5087 26.4989C32.3712 26.6011 32.211 26.6697 32.0412 26.6991L31.8387 26.7361C31.3717 26.8211 30.951 27.0674 30.6524 27.4306L30.304 27.8565C30.2937 27.8689 30.2803 27.8785 30.2651 27.8843C30.2499 27.8902 30.2334 27.892 30.2173 27.8897C30.2011 27.8873 30.1859 27.8809 30.1731 27.871C30.1602 27.8612 30.1502 27.8482 30.1439 27.8333L29.9839 27.4445C29.2118 26.588 29.1883 25.2083 29.1883 24.588C29.193 24.5012 29.2312 24.4194 29.295 24.3592C29.3588 24.299 29.4435 24.265 29.5319 24.2639L30.1769 23.338L30.0215 23.2083L28.8258 23.713C28.7375 23.7515 28.6421 23.7716 28.5456 23.772C28.449 23.7724 28.3535 23.753 28.265 23.7151C28.1764 23.6772 28.0969 23.6217 28.0313 23.552C27.9658 23.4823 27.9157 23.4 27.8842 23.3102C27.1969 21.2871 29.0329 18.7963 29.8897 17.7871C30.1336 17.4935 30.4617 17.279 30.8313 17.1713L31.0196 17.1204C31.1592 17.0831 31.3033 17.0644 31.448 17.0648H31.867C31.9645 17.0647 32.0608 17.0867 32.1482 17.1293C32.2356 17.1719 32.3118 17.2338 32.3707 17.3102L33.3123 18.5093H34.3198L35.2613 17.3102C35.3193 17.2339 35.3946 17.1719 35.4813 17.1293C35.5679 17.0867 35.6635 17.0647 35.7603 17.0648H36.184C36.3287 17.0648 36.4727 17.0835 36.6124 17.1204L36.7961 17.1713C37.175 17.2758 37.513 17.4904 37.7659 17.7871C38.6227 18.7963 40.4587 21.2871 39.7714 23.3102" fill="black"/>
<path d="M32.3002 20.7592L30.7278 20.162C30.3272 20.0139 29.8855 20.0139 29.4849 20.162L29.0518 20.3194C29.045 20.3241 29.0394 20.3304 29.0356 20.3376C29.0318 20.3449 29.0298 20.3529 29.0298 20.3611C29.0298 20.3693 29.0318 20.3773 29.0356 20.3846C29.0394 20.3918 29.045 20.3981 29.0518 20.4028L29.7768 21.0509C29.8708 21.1384 29.9957 21.1865 30.1252 21.1852H30.3841C30.4638 21.1852 30.5424 21.2036 30.6136 21.239C30.6847 21.2744 30.7464 21.3257 30.7937 21.3889L31.4669 22.2778C31.4711 22.2845 31.477 22.29 31.484 22.2938C31.491 22.2977 31.4989 22.2997 31.5069 22.2997C31.5149 22.2997 31.5228 22.2977 31.5298 22.2938C31.5368 22.29 31.5427 22.2845 31.5469 22.2778L31.8059 21.8426C31.8114 21.834 31.819 21.8269 31.8281 21.822C31.8371 21.817 31.8473 21.8145 31.8576 21.8145C31.868 21.8145 31.8782 21.817 31.8872 21.822C31.8963 21.8269 31.9039 21.834 31.9094 21.8426L32.1024 22.2268H32.2578L32.1684 21.4444C32.1538 21.3272 32.1786 21.2085 32.239 21.1065L32.3661 20.8935C32.3723 20.8824 32.376 20.8702 32.377 20.8575C32.378 20.8449 32.3761 20.8322 32.3717 20.8204C32.3672 20.8085 32.3602 20.7977 32.3511 20.7888C32.342 20.7798 32.3311 20.7729 32.319 20.7685" fill="black"/>
</g>
<defs>
<clipPath id="clip0_25_105">
<rect width="203" height="40" fill="white"/>
</clipPath>
</defs>
</svg>
