<svg width="323" height="64" viewBox="0 0 323 64" fill="none" xmlns="http://www.w3.org/2000/svg">
<g clip-path="url(#clip0_33_69)">
<path d="M213.028 18.6222V63.2815H208.534V53.7852C206.638 56.9424 203.933 59.5491 200.692 61.3425C197.451 63.1359 193.79 64.0526 190.077 64C177.463 64 167.133 54.6 167.133 40.9481C167.133 27.2963 177.463 18.0815 190.077 18.0815C197.395 18.0815 204.796 21.4222 208.549 28.3852V18.6222H213.028ZM171.612 40.9481C171.612 52.163 179.852 59.6667 190.077 59.6667C215.223 59.6667 215.223 22.3259 190.077 22.3259C179.845 22.3259 171.612 29.7333 171.612 40.9481Z" fill="white"/>
<path d="M268.513 0V63.2815H264.131V53.4222C260.385 60.2074 252.977 64 245.299 64C232.677 64 222.714 55.7778 222.714 40.9481C222.714 26.1185 232.774 17.8963 245.389 17.8963C253.157 17.8963 260.468 21.1556 264.116 28.3852V0H268.513ZM227.104 40.9481C227.104 53.3333 235.419 59.6667 245.569 59.6667C256.175 59.6667 264.033 51.9778 264.033 40.8593C264.033 29.7407 255.988 22.1481 245.569 22.1481C235.419 22.1481 227.104 28.3852 227.104 40.9481Z" fill="white"/>
<path d="M308.738 18.7111H322.086V19.0741L307.277 40.6815L323 63.0074V63.2815H309.651L299.868 48.363L290.086 63.2815H276.745V63.0074L292.468 40.6815L277.658 19.0741V18.7111H290.999L299.868 33.8074L308.738 18.7111Z" fill="#4381C3"/>
<path d="M24.1801 17.2148C21.8152 17.1664 19.4704 17.6516 17.3236 18.6335C15.1767 19.6153 13.2844 21.0681 11.7904 22.8815L11.3634 17.8963H0V62.6741H12.2174V40.1185C12.2174 32.763 16.7493 28.4519 24.2025 28.4519C25.9646 28.4968 27.7192 28.6951 29.446 29.0444V17.9333C27.7325 17.4971 25.9718 17.2683 24.2025 17.2519" fill="white"/>
<path d="M118.81 17.8963L118.383 22.3408C114.333 18.7972 109.094 16.8699 103.687 16.9333C90.533 16.9333 80.8774 26.563 80.8774 40.2519C80.8774 53.437 90.106 63.5778 103.687 63.5778C109.072 63.5973 114.283 61.6868 118.354 58.2L118.781 62.6445H129.38V17.8963H118.81ZM105.327 52.2815C98.3233 52.2815 93.2821 47.2963 93.2821 40.2815C93.2821 33.2667 98.3233 28.2889 105.327 28.2889C112.331 28.2889 117.312 33.2741 117.312 40.2815C117.312 47.2889 112.271 52.2815 105.327 52.2815Z" fill="white"/>
<path d="M159.553 17.2148C157.189 17.1664 154.845 17.6516 152.699 18.6336C150.554 19.6155 148.663 21.0683 147.17 22.8815L146.743 17.8963H135.395V62.6741H147.612V40.1185C147.612 32.763 152.107 28.4518 159.598 28.4518C161.36 28.4968 163.114 28.6951 164.841 29.0444V17.9333C163.128 17.4966 161.367 17.2678 159.598 17.2518" fill="white"/>
<path d="M58.7723 32.2593L56.2704 33.2148C56.2512 33.2219 56.2338 33.2329 56.2193 33.2473C56.2049 33.2616 56.1937 33.2788 56.1866 33.2978C56.1795 33.3168 56.1766 33.3371 56.1781 33.3573C56.1797 33.3775 56.1856 33.3971 56.1955 33.4148L56.3903 33.7555C56.4889 33.918 56.531 34.1079 56.5101 34.2963L56.3603 35.5555H56.6075L56.9221 34.9407C56.9309 34.927 56.943 34.9156 56.9574 34.9077C56.9719 34.8999 56.988 34.8958 57.0045 34.8958C57.021 34.8958 57.0372 34.8999 57.0516 34.9077C57.066 34.9156 57.0781 34.927 57.0869 34.9407L57.4989 35.637C57.5046 35.6479 57.5132 35.657 57.5237 35.6634C57.5343 35.6698 57.5464 35.6732 57.5588 35.6732C57.5712 35.6732 57.5833 35.6698 57.5939 35.6634C57.6045 35.657 57.6131 35.6479 57.6187 35.637L58.6974 34.2148C58.7722 34.1133 58.8702 34.0308 58.9835 33.9742C59.0968 33.9175 59.2221 33.8883 59.3491 33.8889H59.7611C59.9668 33.8896 60.165 33.8127 60.3154 33.6741L61.4615 32.637C61.4723 32.6295 61.4811 32.6195 61.4872 32.6079C61.4933 32.5963 61.4965 32.5834 61.4965 32.5704C61.4965 32.5573 61.4933 32.5444 61.4872 32.5328C61.4811 32.5212 61.4723 32.5112 61.4615 32.5037L60.7723 32.2518C60.1349 32.0148 59.4322 32.0148 58.7948 32.2518" fill="white"/>
<path d="M53.8284 16.963C49.1645 16.963 44.6054 18.3306 40.7276 20.8928C36.8497 23.4551 33.8273 27.097 32.0426 31.3579C30.2578 35.6188 29.7908 40.3073 30.7007 44.8307C31.6105 49.354 33.8564 53.509 37.1542 56.7702C40.4521 60.0313 44.6538 62.2522 49.228 63.1519C53.8022 64.0517 58.5435 63.5899 62.8523 61.825C67.1612 60.06 70.844 57.0713 73.4351 53.2365C76.0262 49.4018 77.4092 44.8934 77.4092 40.2815C77.4072 34.0976 74.9221 28.1676 70.5003 23.795C66.0785 19.4223 60.0818 16.9649 53.8284 16.963ZM56.2853 53.0296C55.8083 53.215 55.2997 53.3081 54.7872 53.3037H54.6149C54.5454 53.3037 54.4787 53.2764 54.4295 53.2278C54.3803 53.1791 54.3527 53.1132 54.3527 53.0444C54.3579 52.9869 54.3509 52.929 54.3322 52.8743C54.3135 52.8196 54.2834 52.7694 54.2439 52.7269C54.2044 52.6843 54.1564 52.6504 54.1029 52.6273C54.0494 52.6042 53.9916 52.5924 53.9332 52.5926H53.701C53.6443 52.5916 53.588 52.6018 53.5353 52.6226C53.4827 52.6433 53.4347 52.6743 53.3943 52.7136C53.3538 52.7529 53.3217 52.7998 53.2998 52.8515C53.2778 52.9032 53.2666 52.9587 53.2666 53.0148C53.2666 53.0836 53.2389 53.1495 53.1898 53.1981C53.1406 53.2467 53.0739 53.2741 53.0044 53.2741H52.8396C52.3269 53.28 51.818 53.1869 51.3414 53C50.1055 52.5259 48.0305 51.4148 49.0942 49.563C49.2339 49.7038 49.4005 49.8157 49.5845 49.892C49.7684 49.9683 49.9659 50.0076 50.1654 50.0074H50.2328C50.6868 50.0112 51.1265 49.8504 51.4688 49.5555C52.1069 49.0068 52.9306 48.7159 53.7759 48.7407C54.6582 48.7006 55.5214 49.0037 56.1805 49.5852C56.5228 49.8801 56.9624 50.0408 57.4164 50.037H57.4838C57.6833 50.0372 57.8808 49.998 58.0648 49.9216C58.2487 49.8453 58.4154 49.7334 58.555 49.5926C59.6337 51.4444 57.5587 52.5555 56.3078 53.0296M50.5624 45.8741V44.8148L50.6598 45C50.8234 45.3284 51.076 45.6055 51.3894 45.8004C51.7029 45.9952 52.0649 46.1002 52.4351 46.1037H55.2067C55.5805 46.1035 55.9469 46.0001 56.2645 45.8051C56.5822 45.6101 56.8384 45.3312 57.0044 45L57.1018 44.8148V45.8741C57.1018 46.2277 56.9598 46.5668 56.7069 46.8169C56.454 47.0669 56.1111 47.2074 55.7535 47.2074H51.9032C51.7265 47.2074 51.5516 47.1729 51.3884 47.1058C51.2252 47.0387 51.0771 46.9403 50.9525 46.8164C50.8279 46.6925 50.7293 46.5455 50.6623 46.3837C50.5954 46.222 50.5614 46.0488 50.5624 45.8741ZM63.2966 37.2592C63.2456 37.4022 63.1654 37.5332 63.0609 37.6441C62.9564 37.755 62.83 37.8434 62.6894 37.9039C62.5488 37.9644 62.3972 37.9955 62.2439 37.9955C62.0906 37.9955 61.939 37.9642 61.7985 37.9037L59.8884 37.0963L59.6487 37.3037L60.6674 38.7852C60.8086 38.7851 60.9444 38.839 61.0463 38.9356C61.1483 39.0323 61.2084 39.1642 61.2142 39.3037C61.2667 40.2963 61.2142 42.5037 59.9782 43.8741L59.7236 44.4963C59.7148 44.5201 59.6998 44.5411 59.68 44.5571C59.6602 44.5732 59.6364 44.5836 59.6111 44.5874C59.5858 44.5912 59.5599 44.5882 59.5362 44.5787C59.5125 44.5692 59.4918 44.5535 59.4764 44.5333L58.9221 43.8518C58.4442 43.2702 57.7722 42.8762 57.0269 42.7407L56.7048 42.6815C56.436 42.6394 56.1808 42.5358 55.9597 42.3789C55.7386 42.222 55.5577 42.0161 55.4314 41.7778C55.3534 41.6189 55.2206 41.4928 55.0568 41.4222L54.8246 41.3259C54.6019 41.2294 54.4124 41.0709 54.2794 40.8696C54.1463 40.6683 54.0755 40.433 54.0756 40.1926V40C54.0789 39.7131 54.1481 39.4307 54.2779 39.1741C54.4076 38.9175 54.5946 38.6933 54.8246 38.5185L55.2816 38.1704C55.4645 38.032 55.688 37.9566 55.9183 37.9555C56.2024 37.9555 56.4748 37.8439 56.6757 37.6453C56.8766 37.4466 56.9895 37.1772 56.9895 36.8963V36.237H50.6823V36.8963C50.6823 37.1759 50.7941 37.4442 50.9933 37.6427C51.1926 37.8411 51.4632 37.9536 51.7459 37.9555C51.9766 37.9544 52.2009 38.03 52.3827 38.1704L52.8471 38.5185C53.0759 38.6944 53.262 38.9188 53.3916 39.1752C53.5212 39.4316 53.5911 39.7134 53.5962 40V40.1926C53.5953 40.4328 53.524 40.6677 53.3911 40.8688C53.2582 41.0699 53.0692 41.2287 52.8471 41.3259L52.6149 41.4222C52.4533 41.4959 52.3214 41.6211 52.2403 41.7778C52.121 42.022 51.9446 42.2346 51.7258 42.3982C51.507 42.5618 51.252 42.6716 50.9819 42.7185L50.6598 42.7778C49.9167 42.9137 49.2472 43.3078 48.7721 43.8889L48.2178 44.5704C48.2014 44.5903 48.1801 44.6056 48.1559 44.6149C48.1317 44.6242 48.1055 44.6271 48.0798 44.6234C48.0541 44.6197 48.0299 44.6094 48.0094 44.5936C47.989 44.5778 47.973 44.557 47.9631 44.5333L47.7084 43.9111C46.48 42.5407 46.4425 40.3333 46.4425 39.3407C46.4501 39.2018 46.5108 39.071 46.6124 38.9747C46.7139 38.8784 46.8487 38.8239 46.9893 38.8222L48.0156 37.3407L47.7684 37.1333L45.8657 37.9407C45.7253 38.0024 45.5735 38.0345 45.4199 38.0351C45.2663 38.0357 45.1143 38.0047 44.9734 37.9442C44.8325 37.8836 44.706 37.7947 44.6017 37.6832C44.4974 37.5716 44.4177 37.4399 44.3676 37.2963C43.2739 34.0592 46.1953 30.0741 47.5586 28.4592C47.9467 27.9896 48.4687 27.6464 49.0568 27.4741L49.3564 27.3926C49.5786 27.333 49.8078 27.3031 50.0381 27.3037H50.7047C50.8599 27.3034 51.0131 27.3387 51.1522 27.4068C51.2912 27.4749 51.4124 27.574 51.5062 27.6963L53.0044 29.6148H54.6074L56.1055 27.6963C56.1978 27.5742 56.3176 27.4751 56.4555 27.4069C56.5934 27.3388 56.7454 27.3034 56.8996 27.3037H57.5737C57.8039 27.3036 58.0331 27.3335 58.2554 27.3926L58.5475 27.4741C59.1505 27.6413 59.6883 27.9847 60.0906 28.4592C61.4539 30.0741 64.3753 34.0592 63.2817 37.2963" fill="white"/>
<path d="M51.3941 33.2148L48.8921 32.2593C48.2548 32.0222 47.552 32.0222 46.9146 32.2593L46.2255 32.5111C46.2146 32.5186 46.2058 32.5286 46.1997 32.5402C46.1936 32.5518 46.1904 32.5647 46.1904 32.5778C46.1904 32.5909 46.1936 32.6037 46.1997 32.6153C46.2058 32.6269 46.2146 32.6369 46.2255 32.6444L47.379 33.6815C47.5286 33.8215 47.7274 33.8985 47.9333 33.8963H48.3453C48.4722 33.8963 48.5973 33.9258 48.7105 33.9824C48.8237 34.039 48.9218 34.1212 48.997 34.2222L50.0682 35.6444C50.0749 35.6552 50.0843 35.664 50.0954 35.6701C50.1066 35.6763 50.1191 35.6795 50.1319 35.6795C50.1446 35.6795 50.1572 35.6763 50.1683 35.6701C50.1794 35.664 50.1888 35.6552 50.1955 35.6444L50.6075 34.9481C50.6163 34.9344 50.6285 34.923 50.6429 34.9152C50.6573 34.9073 50.6735 34.9032 50.6899 34.9032C50.7064 34.9032 50.7226 34.9073 50.737 34.9152C50.7514 34.923 50.7635 34.9344 50.7723 34.9481L51.0794 35.563H51.3266L51.1843 34.3111C51.1612 34.1236 51.2006 33.9337 51.2967 33.7704L51.4989 33.4296C51.5088 33.4119 51.5148 33.3923 51.5163 33.3721C51.5178 33.3519 51.5149 33.3316 51.5078 33.3127C51.5007 33.2937 51.4895 33.2764 51.4751 33.2621C51.4606 33.2478 51.4432 33.2367 51.424 33.2296" fill="white"/>
</g>
<defs>
<clipPath id="clip0_33_69">
<rect width="323" height="64" fill="white"/>
</clipPath>
</defs>
</svg>
