<svg width="160" height="104" viewBox="0 0 160 104" fill="none" xmlns="http://www.w3.org/2000/svg">
<rect x="25.9897" width="133.661" height="103.958" rx="16" fill="#E6436D"/>
<rect width="133.661" height="103.958" rx="16" fill="#65D2E9"/>
<rect x="12.9946" width="133.661" height="103.958" rx="16" fill="white"/>
<path d="M77.0406 28.7742C76.0154 28.7742 75.1842 29.6053 75.1842 30.6306V48.2665H57.5483C56.5231 48.2665 55.6919 49.0977 55.6919 50.1229V55.6922C55.6919 56.7174 56.5231 57.5486 57.5483 57.5486H75.1842V75.1845C75.1842 76.2097 76.0154 77.0409 77.0406 77.0409H82.6099C83.6351 77.0409 84.4663 76.2097 84.4663 75.1845V57.5486H102.102C103.127 57.5486 103.959 56.7174 103.959 55.6922V50.1229C103.959 49.0977 103.127 48.2665 102.102 48.2665H84.4663V30.6306C84.4663 29.6053 83.6351 28.7742 82.6099 28.7742H77.0406Z" fill="black"/>
</svg>
