<svg width="227" height="55" viewBox="0 0 227 55" fill="none" xmlns="http://www.w3.org/2000/svg">
<g clip-path="url(#clip0_33_123)">
<path d="M83.1798 21.8645H75.8116V51.7288H66.5926V21.8645H57.3912L57.3735 13.6782H85.7886L83.1798 21.8645Z" fill="white"/>
<path d="M158.783 21.8645H150.78V51.7288H141.579V21.8645H132.342L132.324 13.6782H161.391L158.783 21.8645Z" fill="white"/>
<path d="M96.6294 51.7288H87.5866L87.5161 25.782H96.6294V51.7288Z" fill="white"/>
<path d="M109.338 31.2981L118.363 22.5145H129.222L117.817 33.5467L130.597 51.7288H120.567L112.035 39.098L109.338 41.6979V51.7288H100.243V13.5728H109.338V31.2981Z" fill="white"/>
<path d="M205.847 31.2981L214.855 22.5145H225.713L214.308 33.5467L227 51.7288H216.97L208.456 39.098L205.847 41.6979V51.7288H196.734L196.646 13.5728H205.847V31.2981Z" fill="white"/>
<path d="M92.0816 22.8132C94.6128 22.8132 96.6647 20.7682 96.6647 18.2457C96.6647 15.7231 94.6128 13.6782 92.0816 13.6782C89.5504 13.6782 87.4985 15.7231 87.4985 18.2457C87.4985 20.7682 89.5504 22.8132 92.0816 22.8132Z" fill="white"/>
<path d="M160.228 36.1994C160.231 28.0949 166.487 21.3552 174.594 20.7227C174.189 20.7227 173.643 20.7227 173.237 20.7227C164.998 21.2016 158.562 28.0003 158.562 36.2257C158.562 44.4511 164.998 51.2498 173.237 51.7288C173.643 51.7288 174.189 51.7288 174.594 51.7288C166.467 51.0946 160.203 44.3241 160.228 36.1994Z" fill="#25F4EE"/>
<path d="M178.138 20.67C177.715 20.67 177.168 20.67 176.763 20.67C184.844 21.3352 191.062 28.0656 191.062 36.1467C191.062 44.2277 184.844 50.9582 176.763 51.6234C177.168 51.6234 177.715 51.6234 178.138 51.6234C186.744 51.6234 193.72 44.6706 193.72 36.094C193.72 27.5173 186.744 20.5646 178.138 20.5646V20.67Z" fill="#FE2C55"/>
<path d="M175.67 43.7533C171.484 43.7533 168.09 40.3713 168.09 36.1994C168.09 32.0275 171.484 28.6455 175.67 28.6455C179.856 28.6455 183.25 32.0275 183.25 36.1994C183.24 40.3673 179.852 43.7436 175.67 43.7533ZM175.67 20.67C167.064 20.67 160.087 27.6227 160.087 36.1994C160.087 44.776 167.064 51.7288 175.67 51.7288C184.276 51.7288 191.252 44.776 191.252 36.1994C191.252 32.0807 189.611 28.1308 186.688 25.2184C183.766 22.3061 179.803 20.67 175.67 20.67Z" fill="white"/>
<path d="M19.0211 21.6604V19.5172C18.2746 19.3993 17.5206 19.3347 16.7648 19.3239C9.44813 19.3085 2.97036 24.0337 0.773249 30.989C-1.42386 37.9443 1.16958 45.5156 7.17562 49.68C2.67667 44.8815 1.42745 37.8961 3.98599 31.8441C6.54452 25.792 12.433 21.8036 19.0211 21.6604Z" fill="#25F4EE"/>
<path d="M19.4264 45.9382C23.5172 45.9328 26.8799 42.7209 27.0589 38.6478V2.3013H33.722C33.586 1.54184 33.5211 0.77143 33.5281 0H24.4149V36.3114C24.2633 40.4052 20.8928 43.6478 16.7823 43.6545C15.5539 43.6441 14.3456 43.343 13.2568 42.7761C14.688 44.7523 16.9809 45.9275 19.4264 45.9382Z" fill="#25F4EE"/>
<path d="M46.1671 14.6335V12.6133C43.715 12.6141 41.3172 11.893 39.2749 10.5403C41.0653 12.6145 43.4846 14.0513 46.1671 14.6335Z" fill="#25F4EE"/>
<path d="M39.2747 10.5403C37.2629 8.25718 36.1539 5.32227 36.1547 2.28375H33.7222C34.3571 5.67894 36.365 8.66456 39.2747 10.5403Z" fill="#FE2C55"/>
<path d="M16.765 28.4062C13.2545 28.4241 10.2067 30.821 9.37294 34.2195C8.53916 37.618 10.1334 41.1459 13.2396 42.7762C11.5565 40.4604 11.3187 37.3996 12.6241 34.8533C13.9295 32.307 16.5575 30.7054 19.4267 30.7075C20.1918 30.717 20.9515 30.8353 21.683 31.0588V21.8185C20.936 21.707 20.182 21.6483 19.4267 21.6428H19.0213V28.6697C18.286 28.4732 17.5259 28.3845 16.765 28.4062Z" fill="#FE2C55"/>
<path d="M46.1672 14.6335V21.6604C41.6276 21.6516 37.206 20.2196 33.5285 17.5672V36.0303C33.509 45.2433 26.0094 52.7016 16.765 52.7016C13.3318 52.7078 9.9814 51.652 7.17578 49.68C11.858 54.6987 19.1448 56.3507 25.5446 53.8445C31.9444 51.3382 36.1535 45.1844 36.1549 38.3316V19.9212C39.8447 22.5562 44.2719 23.9696 48.8113 23.9617V14.9146C47.9225 14.9117 47.0365 14.8175 46.1672 14.6335Z" fill="#FE2C55"/>
<path d="M33.5285 36.0303V17.5672C37.2172 20.2044 41.6451 21.618 46.1848 21.6077V14.5808C43.5028 14.0164 41.0776 12.5983 39.2749 10.5403C36.3652 8.66456 34.3573 5.67894 33.7224 2.28375H27.0593V38.6479C26.926 41.8921 24.7456 44.6963 21.6266 45.6347C18.5076 46.5732 15.1344 45.44 13.2219 42.8113C10.1157 41.1811 8.52151 37.6531 9.35529 34.2546C10.1891 30.8561 13.2368 28.4593 16.7474 28.4413C17.5126 28.4482 18.2728 28.5665 19.0036 28.7927V21.7658C12.3786 21.8776 6.44561 25.88 3.8798 31.9682C1.314 38.0565 2.60007 45.0805 7.15815 49.8733C9.99142 51.7802 13.3467 52.7681 16.765 52.7016C26.0094 52.7016 33.509 45.2433 33.5285 36.0303Z" fill="white"/>
</g>
<defs>
<clipPath id="clip0_33_123">
<rect width="227" height="55" fill="white"/>
</clipPath>
</defs>
</svg>
